<?xml version="1.0" encoding="utf-8"?>
<!-- Generator: Adobe Illustrator 26.5.0, SVG Export Plug-In . SVG Version: 6.00 Build 0)  -->
<svg version="1.1" id="Layer_1" xmlns="http://www.w3.org/2000/svg" xmlns:xlink="http://www.w3.org/1999/xlink" x="0px" y="0px"
	 viewBox="0 0 1965.3 1342.3" style="enable-background:new 0 0 1965.3 1342.3;" xml:space="preserve">
<style type="text/css">
	.st0{display:none;fill:#FC2B2B;}
	.st1{fill:#FF7878;}
	.st2{fill:#FFFFFF;}
	.st3{fill:#AD0B0B;}
	.st4{fill:#FF7878;stroke:#000000;stroke-width:15;stroke-miterlimit:10;}
	.st5{fill:none;stroke:#FFFFFF;stroke-width:21;stroke-linecap:round;stroke-miterlimit:10;}
	.st6{fill:none;stroke:#000000;stroke-width:11;stroke-miterlimit:10;}
	.st7{fill:#024E45;}
	.st8{fill:#FFFFFF;stroke:#022027;stroke-width:15;stroke-miterlimit:10;}
	.st9{fill:#022027;}
	.st10{fill:#C8133E;}
	.st11{fill:#FFFFFF;stroke:#000000;stroke-width:15;stroke-miterlimit:10;}
	.st12{fill:url(#SVGID_1_);}
</style>
<rect x="-3062.3" y="-5650.3" class="st0" width="3845" height="1700.6"/>
<rect x="-2132.3" y="-5140.3" class="st1" width="590.1" height="616.5"/>
<rect x="-1474.1" y="-5301.3" class="st1" width="656.1" height="938.5"/>
<rect x="-3781.9" y="-3623" width="1080" height="1080"/>
<rect x="-747.6" y="-5140.3" class="st1" width="590.1" height="616.5"/>
<path d="M-2385.1-5081.8c84,0,154.4,67.6,153.9,170.1c0,103.2-70.5,170.2-153.9,170.2h-138.3v165h-144.3v-505.3H-2385.1
	L-2385.1-5081.8z M-2364.9-4911.6c0.2-33.9-22.2-51.8-46.2-51.8h-112.3v104h112.3C-2387.3-4859.5-2364.9-4877.2-2364.9-4911.6
	L-2364.9-4911.6L-2364.9-4911.6z"/>
<path d="M635.9-5083.3c150.5,0,249.7,107.5,249.7,253s-99.1,253.1-249.7,253.1H405.6v-506.1H635.9z M618.2-4695.8
	c74.6,0,121.9-52.7,121.9-134.4c0-81.7-47.4-134.4-121.9-134.4h-68v268.8H618.2L618.2-4695.8z"/>
<rect x="-2132.3" y="-5500.2" class="st1" width="1974.8" height="130.8"/>
<rect x="-2132.3" y="-4288.7" class="st1" width="1974.8" height="130.8"/>
<g>
	<rect x="0.1" y="198.9" class="st2" width="938.5" height="938.5"/>
	<path d="M549.3,415.6c84,0,154.4,67.6,153.9,170.1c0,103.2-70.5,170.2-153.9,170.2H411v165H266.7V415.6L549.3,415.6L549.3,415.6z
		 M569.5,585.8c0.2-33.9-22.2-51.8-46.2-51.8H411v104h112.3C547.1,637.9,569.5,620.2,569.5,585.8L569.5,585.8L569.5,585.8z"/>
	<rect x="1026.9" y="200.7" class="st2" width="938.5" height="938.5"/>
	<path d="M1506.7,416.9c150.5,0,249.7,107.5,249.7,253S1657.3,923,1506.7,923h-230.3V416.9H1506.7z M1489,804.4
		c74.6,0,121.9-52.7,121.9-134.4c0-81.7-47.4-134.4-121.9-134.4h-68v268.8H1489L1489,804.4z"/>
	<rect class="st2" width="1964.7" height="130.8"/>
	<rect y="1211.5" class="st2" width="1965.3" height="130.8"/>
</g>
<rect x="-2771.8" y="-4324" class="st3" width="506.5" height="68.1"/>
<polygon class="st4" points="-3644,-3198.5 -3356.5,-3198.5 -3356.5,-2967.4 -3647.8,-2967.4 "/>
<polygon class="st4" points="-2843.2,-3198.5 -3130.7,-3198.5 -3130.7,-2967.4 -2848.5,-2967.4 "/>
<g>
	<polygon class="st1" points="-3430.7,-2952.9 -3480.8,-3292.8 -3010.1,-3292.8 -3053.6,-2952.9 	"/>
	<path d="M-3026.6-3278.3l-39.8,310.9h-351.8l-45.8-310.9H-3026.6 M-2993.7-3307.3h-32.9H-3464h-33.6l4.9,33.2l45.8,310.9l3.7,24.8
		h25h351.8h25.5l3.2-25.3l39.8-310.9L-2993.7-3307.3L-2993.7-3307.3z"/>
</g>
<g>
	<rect x="-3464" y="-3336.1" class="st1" width="437.4" height="41.1"/>
</g>
<g>
	<rect x="-3635.5" y="-3235.8" class="st1" width="154.8" height="30.8"/>
</g>
<g>
	<rect x="-3008.3" y="-3235.8" class="st1" width="155.6" height="30.8"/>
</g>
<path class="st5" d="M352-2332.6c0,0,42.5-50.7,93.1,0"/>
<path class="st5" d="M309.1-2382.2c0,0,81.6-97.3,178.9,0"/>
<path class="st5" d="M254.1-2439.2c0,0,131.8-157.2,289,0"/>
<g id="Hzi4Ub_00000052063403930573008710000008846079596931823514_">
	
		<image style="overflow:visible;enable-background:new    ;" width="1918" height="1922" id="Hzi4Ub_00000052786311380947712560000002454782716656102303_" xlink:href="3FD7397828DA1476.jpg"  transform="matrix(0.2163 0 0 0.2163 -1554.7435 -4083.3552)">
	</image>
</g>
<g>
	<rect x="-3602.5" y="-3191.4" width="28" height="136.7"/>
	<rect x="-3543.2" y="-3191.4" width="29.5" height="136.7"/>
</g>
<g>
	<rect x="-2974.9" y="-3191.4" width="28" height="136.7"/>
	<rect x="-2915.7" y="-3191.4" width="29.5" height="136.7"/>
</g>
<line class="st6" x1="-3347.9" y1="-3283.7" x2="-3347.9" y2="-3283.7"/>
<line class="st6" x1="-3234.7" y1="-3283.7" x2="-3234.7" y2="-3283.7"/>
<line class="st6" x1="-3130.7" y1="-3283.7" x2="-3130.7" y2="-3283.7"/>
<rect x="-1169.2" y="-3623" width="1080" height="1080"/>
<polygon class="st4" points="-1031.4,-3198.5 -743.9,-3198.5 -743.9,-2967.4 -965.2,-2967.4 "/>
<polygon class="st4" points="-230.6,-3198.5 -518.1,-3198.5 -518.1,-2967.4 -296.9,-2967.4 "/>
<g>
	<polygon class="st1" points="-818.1,-2952.9 -868.2,-3292.8 -397.5,-3292.8 -441,-2952.9 	"/>
	<path d="M-414-3278.3l-39.8,310.9h-351.8l-45.8-310.9H-414 M-381-3307.3h-32.9h-437.5H-885l4.9,33.2l45.8,310.9l3.7,24.8h25h351.8
		h25.5l3.2-25.3l39.8-310.9L-381-3307.3L-381-3307.3z"/>
</g>
<g>
	<rect x="-851.4" y="-3325.9" class="st1" width="437.4" height="30.8"/>
</g>
<g>
	<rect x="-1022.9" y="-3235.8" class="st1" width="154.8" height="30.8"/>
</g>
<g>
	<rect x="-395.7" y="-3235.8" class="st1" width="155.6" height="30.8"/>
</g>
<rect x="-646.3" y="-3278.3" width="48.4" height="162.5"/>
<rect x="-543.7" y="-3278.3" width="51.2" height="162.5"/>
<rect x="-760.7" y="-3278.3" width="50.9" height="162.5"/>
<line class="st6" x1="-735.3" y1="-3115.7" x2="-735.3" y2="-2967.4"/>
<line class="st6" x1="-622.1" y1="-3115.7" x2="-622.1" y2="-2967.4"/>
<line class="st6" x1="-518.1" y1="-3115.7" x2="-518.1" y2="-2967.4"/>
<rect x="-1223.5" y="-2337" class="st2" width="1080" height="1080"/>
<rect x="-2410.2" y="-4014.9" width="48.4" height="162.8"/>
<rect x="-2334.3" y="-3954.1" width="51.2" height="101.9"/>
<rect x="-2488.6" y="-3954.1" width="50.9" height="101.9"/>
<circle class="st7" cx="-683.5" cy="-1886.3" r="408.1"/>
<line class="st6" x1="-3824.5" y1="-3109.4" x2="-3824.5" y2="-3029.6"/>
<line class="st6" x1="-2861" y1="-3330.9" x2="-2861" y2="-3310.4"/>
<polygon class="st8" points="-1043.2,-1928.3 -784.9,-1928.3 -784.9,-1720.7 -983.7,-1720.7 "/>
<polygon class="st8" points="-323.8,-1928.3 -582.1,-1928.3 -582.1,-1720.7 -383.3,-1720.7 "/>
<g>
	<polygon class="st2" points="-852.8,-1706.2 -898.3,-2014.5 -472.1,-2014.5 -511.5,-1706.2 	"/>
	<path class="st9" d="M-488.6-2000l-35.7,279.2h-316l-41.2-279.2H-488.6 M-455.6-2029h-32.9h-393h-33.6l4.9,33.2l41.1,279.2
		l3.7,24.8h25h316h25.5l3.2-25.3l35.7-279.2L-455.6-2029L-455.6-2029z"/>
</g>
<g>
	<rect x="-881.5" y="-2062.4" class="st10" width="392.9" height="36.9"/>
</g>
<g>
	<polygon class="st10" points="-900,-1975.6 -1035.5,-1975.6 -1035.5,-1948 -896.4,-1948 	"/>
</g>
<line class="st6" x1="-777.2" y1="-2004.8" x2="-777.2" y2="-2004.8"/>
<line class="st6" x1="-675.5" y1="-2004.8" x2="-675.5" y2="-2004.8"/>
<line class="st6" x1="-582.1" y1="-2004.8" x2="-582.1" y2="-2004.8"/>
<g>
	<polygon class="st10" points="-472.4,-1947.5 -468.6,-1976.1 -332.2,-1976.1 -332.2,-1947.5 	"/>
	<path class="st9" d="M-332.7-1975.6v27.7h-139.1l3.6-27.7H-332.7 M-331.7-1976.6h-1h-135.5h-0.9l-0.1,0.9l-3.6,27.7l-0.1,1.1h1.1
		h139.1h1v-1v-27.7L-331.7-1976.6L-331.7-1976.6z"/>
</g>
<rect x="-2429.5" y="-2337" width="1080" height="1080"/>
<polygon class="st11" points="-2291.6,-1912.6 -2004.2,-1912.6 -2004.2,-1681.5 -2225.4,-1681.5 "/>
<polygon class="st11" points="-1490.9,-1912.6 -1778.3,-1912.6 -1778.3,-1681.5 -1557.1,-1681.5 "/>
<g>
	<polygon class="st2" points="-2078.4,-1667 -2128.4,-2006.8 -1657.8,-2006.8 -1701.2,-1667 	"/>
	<path d="M-1674.2-1992.3l-39.8,310.9h-351.8l-45.8-310.9H-1674.2 M-1641.3-2021.3h-32.9h-437.4h-33.6l4.9,33.2l45.8,310.9l3.7,24.8
		h25h351.8h25.5l3.2-25.3l39.8-310.9L-1641.3-2021.3L-1641.3-2021.3z"/>
</g>
<g>
	<rect x="-2111.6" y="-2050.2" class="st2" width="437.4" height="41.1"/>
</g>
<g>
	<polygon class="st2" points="-2132.3,-1949.8 -2283.1,-1949.8 -2283.1,-1919 -2128.3,-1919 	"/>
</g>
<text transform="matrix(1 0 0 1 -2226.1069 -1584.9595)" class="st2" style="font-family:'Montserrat-Black'; font-size:101.8038px;">PIANO DESK</text>
<text transform="matrix(1 0 0 1 -971.7214 -1375.2476)" style="font-family:'Montserrat-SemiBold'; font-size:97.8839px;">Piano Desk</text>
<polygon class="st8" points="666.3,-1124 924.5,-1124 924.5,-916.4 725.8,-916.4 "/>
<polygon class="st8" points="1385.6,-1124 1127.4,-1124 1127.4,-916.4 1326.1,-916.4 "/>
<g>
	<polygon class="st2" points="856.6,-901.9 811.2,-1210.1 1237.4,-1210.1 1197.9,-901.9 	"/>
	<path class="st9" d="M1220.9-1195.6l-35.7,279.2h-316l-41.1-279.2L1220.9-1195.6 M1253.8-1224.6h-32.9H828h-33.6l4.9,33.2
		l41.1,279.2l3.7,24.8h25h316h25.5l3.2-25.3l35.7-279.2L1253.8-1224.6L1253.8-1224.6z"/>
</g>
<g>
	<rect x="828" y="-1258" class="st10" width="392.9" height="36.9"/>
</g>
<g>
	<polygon class="st10" points="809.4,-1171.3 673.9,-1171.3 673.9,-1143.6 813,-1143.6 	"/>
</g>
<line class="st6" x1="932.3" y1="-1200.5" x2="932.3" y2="-1200.5"/>
<line class="st6" x1="1034" y1="-1200.5" x2="1034" y2="-1200.5"/>
<line class="st6" x1="1127.4" y1="-1200.5" x2="1127.4" y2="-1200.5"/>
<g>
	<polygon class="st10" points="1237.1,-1143.1 1240.8,-1171.8 1377.2,-1171.8 1377.2,-1143.1 	"/>
	<path class="st9" d="M1376.7-1171.3v27.7h-139.1l3.6-27.7H1376.7 M1377.7-1172.3h-1h-135.5h-0.9l-0.1,0.9l-3.6,27.7l-0.1,1.1h1.1
		h139.1h1v-1v-27.7V-1172.3L1377.7-1172.3z"/>
</g>
<text transform="matrix(1 0 0 1 -962.5205 356.5002)" style="font-family:'Montserrat-SemiBold'; font-size:97.8839px;">Piano Desk</text>
<line class="st6" x1="-1995.5" y1="-1997.7" x2="-1995.5" y2="-1997.7"/>
<line class="st6" x1="-1882.3" y1="-1997.7" x2="-1882.3" y2="-1997.7"/>
<line class="st6" x1="-1778.3" y1="-1997.7" x2="-1778.3" y2="-1997.7"/>
<g>
	<polygon class="st2" points="-1651.6,-1949.8 -1500.7,-1949.8 -1500.7,-1919 -1655.6,-1919 	"/>
</g>
<rect x="-2429.5" y="-3623" width="1080" height="1080"/>
<polygon class="st4" points="-2291.6,-3198.5 -2004.2,-3198.5 -2004.2,-2967.4 -2225.4,-2967.4 "/>
<polygon class="st4" points="-1490.9,-3198.5 -1778.3,-3198.5 -1778.3,-2967.4 -1557.1,-2967.4 "/>
<g>
	<polygon class="st1" points="-2078.4,-2952.9 -2128.4,-3292.8 -1657.8,-3292.8 -1701.2,-2952.9 	"/>
	<path d="M-1674.2-3278.3l-39.8,310.9h-351.8l-45.8-310.9H-1674.2 M-1641.3-3307.3h-32.9h-437.4h-33.6l4.9,33.2l45.8,310.9l3.7,24.8
		h25h351.8h25.5l3.2-25.3l39.8-310.9L-1641.3-3307.3L-1641.3-3307.3z"/>
</g>
<g>
	<rect x="-2111.6" y="-3336.1" class="st1" width="437.4" height="41.1"/>
</g>
<g>
	<polygon class="st1" points="-2132.3,-3235.8 -2283.1,-3235.8 -2283.1,-3204.9 -2128.3,-3204.9 	"/>
</g>
<line class="st6" x1="-1995.5" y1="-3283.7" x2="-1995.5" y2="-3283.7"/>
<line class="st6" x1="-1882.3" y1="-3283.7" x2="-1882.3" y2="-3283.7"/>
<line class="st6" x1="-1778.3" y1="-3283.7" x2="-1778.3" y2="-3283.7"/>
<g>
	<polygon class="st1" points="-1651.6,-3235.8 -1500.7,-3235.8 -1500.7,-3204.9 -1655.6,-3204.9 	"/>
</g>
<circle class="st10" cx="53.8" cy="-1872.5" r="172.4"/>
<circle class="st9" cx="53.8" cy="-1472.3" r="172.4"/>
<path d="M-275.4-318.8c0,82.4-24.4,159.1-66.4,223.2c-10.5,16.1-22.1,31.4-34.8,45.8C-396-27.7-417.7-7.7-441.5,9.8
	c-67.7,50-151.4,79.5-242,79.5s-174.3-29.5-242-79.5c-23.7-17.5-45.5-37.5-64.9-59.6c-12.6-14.4-24.3-29.7-34.8-45.8
	c-42-64.2-66.4-140.8-66.4-223.2c0-79.5,22.7-153.6,62-216.3c10-16,21.2-31.3,33.3-45.7c18.4-22,39.1-41.9,61.7-59.6
	c69.2-54.1,156.4-86.4,251.2-86.4s181.9,32.3,251.2,86.4c22.6,17.7,43.3,37.6,61.7,59.6c12.1,14.4,23.2,29.7,33.3,45.7
	C-298.1-472.4-275.4-398.3-275.4-318.8z"/>
<rect x="-2209.2" y="797.6" class="st2" width="729.5" height="29.8"/>
<rect x="-1863.6" y="326.7" class="st2" width="38.2" height="500.7"/>
<rect x="-2209.2" y="326.7" class="st2" width="741.7" height="29.8"/>
<circle class="st7" cx="-1844.5" cy="-408.1" r="408.1"/>
<text transform="matrix(1 0 0 1 -2154.4949 102.9855)" style="font-family:'Montserrat-SemiBold'; font-size:97.8839px;">Piano Desk</text>
<text transform="matrix(1 0 0 1 -2145.2947 -262.3445)" class="st2" style="font-family:'Montserrat-ExtraBold'; font-size:389.7166px; letter-spacing:28;">P</text>
<text transform="matrix(1 0 0 1 -1828.8947 -262.3445)" class="st2" style="font-family:'Montserrat-ExtraBold'; font-size:389.7166px;">D</text>
<rect x="-2209.2" y="-189.2" class="st2" width="729.5" height="59.6"/>
<rect x="-2209.2" y="-705.1" class="st2" width="741.7" height="59.6"/>
<path class="st7" d="M-275.4-318.8c0,82.4-24.4,159.1-66.4,223.2c-10.5,16.1-22.1,31.4-34.8,45.8C-396-27.7-417.7-7.7-441.5,9.8
	c-67.7,50-151.4,79.5-242,79.5s-174.3-29.5-242-79.5c-23.7-17.5-45.5-37.5-64.9-59.6c-12.6-14.4-24.3-29.7-34.8-45.8
	c-42-64.2-66.4-140.8-66.4-223.2c0-79.5,22.7-153.6,62-216.3c10-16,21.2-31.3,33.3-45.7c18.4-22,39.1-41.9,61.7-59.6
	c69.2-54.1,156.4-86.4,251.2-86.4s181.9,32.3,251.2,86.4c22.6,17.7,43.3,37.6,61.7,59.6c12.1,14.4,23.2,29.7,33.3,45.7
	C-298.1-472.4-275.4-398.3-275.4-318.8z"/>
<g>
	<linearGradient id="SVGID_1_" gradientUnits="userSpaceOnUse" x1="-1091.6" y1="-318.8" x2="-275.4" y2="-318.8">
		<stop  offset="0" style="stop-color:#024E45"/>
		<stop  offset="1" style="stop-color:#037C68"/>
	</linearGradient>
	<path class="st12" d="M-275.4-318.8c0,82.4-24.4,159.1-66.4,223.2c-10.5,16.1-22.1,31.4-34.8,45.8C-396-27.7-417.7-7.7-441.5,9.8
		c-67.7,50-151.4,79.5-242,79.5s-174.3-29.5-242-79.5c-23.7-17.5-45.5-37.5-64.9-59.6c-12.6-14.4-24.3-29.7-34.8-45.8
		c-42-64.2-66.4-140.8-66.4-223.2c0-79.5,22.7-153.6,62-216.3c10-16,21.2-31.3,33.3-45.7c18.4-22,39.1-41.9,61.7-59.6
		c69.2-54.1,156.4-86.4,251.2-86.4s181.9,32.3,251.2,86.4c22.6,17.7,43.3,37.6,61.7,59.6c12.1,14.4,23.2,29.7,33.3,45.7
		C-298.1-472.4-275.4-398.3-275.4-318.8z"/>
</g>
<path class="st2" d="M-715.1-535.2v439.6h-310c-42-64.2-66.4-140.8-66.4-223.2c0-79.5,22.7-153.6,62-216.3H-715.1z"/>
<path class="st2" d="M-275.4-318.8c0,82.4-24.4,159.1-66.4,223.2H-663v-439.6h325.6C-298.1-472.4-275.4-398.3-275.4-318.8z"/>
<text transform="matrix(1 0 0 1 -1039.072 -168.2002)" class="st9" style="font-family:'Montserrat-ExtraBold'; font-size:389.7166px; letter-spacing:28;">P</text>
<text transform="matrix(1 0 0 1 -645.1616 -168.1997)" class="st9" style="font-family:'Montserrat-ExtraBold'; font-size:389.7166px;">D</text>
<path class="st2" d="M-376.6-49.8C-396-27.7-417.7-7.7-441.5,9.8h-484.1c-23.7-17.5-45.5-37.5-64.9-59.6H-376.6z"/>
<path d="M-1223.5-858.8v1080h1080v-1080H-1223.5z M-341.8-95.6c-10.5,16.1-22.1,31.4-34.8,45.8C-396-27.7-417.7-7.7-441.5,9.8
	c-67.7,50-151.4,79.5-242,79.5s-174.3-29.5-242-79.5c-23.7-17.5-45.5-37.5-64.9-59.6c-12.6-14.4-24.3-29.7-34.8-45.8
	c-42-64.2-66.4-140.8-66.4-223.2c0-79.5,22.7-153.6,62-216.3c10-16,21.2-31.3,33.3-45.7c18.4-22,39.1-41.9,61.7-59.6
	c69.2-54.1,156.4-86.4,251.2-86.4s181.9,32.3,251.2,86.4c22.6,17.7,43.3,37.6,61.7,59.6c12.1,14.4,23.2,29.7,33.3,45.7
	c39.3,62.7,62,136.9,62,216.3C-275.4-236.4-299.8-159.7-341.8-95.6z"/>
<path class="st2" d="M-370.7-580.9h-625.6c18.4-22,39.1-41.9,61.7-59.6h502.3C-409.8-622.8-389.1-602.9-370.7-580.9z"/>
</svg>
